<?xml version="1.0" ?><svg viewBox="0 0 64 64" xmlns="http://www.w3.org/2000/svg"><g data-name="16 hand delivery box" id="_16_hand_delivery_box"><path d="M60.27,42.62l-.43-1.19a3.851,3.851,0,0,0-4.2-2.42c-.05.01-.09.01-.14.02V13.5c0-.01-.01-.02-.01-.04a.8.8,0,0,0-.06-.3.637.637,0,0,0-.02-.07c-.01-.01-.01-.03-.02-.04l-3-6a.988.988,0,0,0-.89-.55h-27a1,1,0,0,0-.83.45l-4,6a.388.388,0,0,0-.06.11c-.01.03-.03.05-.04.08a1.372,1.372,0,0,0-.07.34V32.92c-.15.02-.3.04-.45.07l-4.08.92V30.5a2.006,2.006,0,0,0-2-2H5.5a2.006,2.006,0,0,0-2,2v25a2.006,2.006,0,0,0,2,2h7.47a2.006,2.006,0,0,0,2-2V52.89L31.5,55.88a12.715,12.715,0,0,0,7-.69l19.52-7.73A3.8,3.8,0,0,0,60.27,42.62ZM12.97,55.5H5.5v-25h7.47ZM42.5,8.5h8.38l2,4H42.5Zm-8,0h6v4h-6Zm0,6h6v12l-2.4-1.8a1,1,0,0,0-1.2,0l-2.4,1.8Zm-9.46-6H32.5v4H22.37Zm-3.54,6h11v14a.977.977,0,0,0,.55.89,1,1,0,0,0,1.05-.09l3.4-2.55,3.4,2.55a1.029,1.029,0,0,0,.6.2.908.908,0,0,0,.45-.11.977.977,0,0,0,.55-.89v-14h11V39.28c-.5.07-1.01.15-1.5.24-1.01.16-2.06.34-3.08.44a53.558,53.558,0,0,1-7.03.33,53.365,53.365,0,0,1-5.91-.52,3.661,3.661,0,0,0-.33-2.03,4,4,0,0,0-2.54-2.08l-9.48-2.57a9.536,9.536,0,0,0-2.13-.32ZM57.28,45.6,37.77,53.33a10.729,10.729,0,0,1-5.91.58L14.97,50.86V35.96l4.52-1.02a7.517,7.517,0,0,1,3.62.08l9.47,2.57a1.992,1.992,0,0,1,1.27,1.02,1.725,1.725,0,0,1,.03,1.44,2.036,2.036,0,0,1-2.02,1.17l-8.22-1.7a1,1,0,0,0-.41,1.96l8.28,1.71a.355.355,0,0,0,.1.02c.14.01.27.02.4.02a4.068,4.068,0,0,0,3.2-1.55,56.551,56.551,0,0,0,6.62.61,55.905,55.905,0,0,0,7.3-.34c1.08-.11,2.16-.29,3.2-.46,1.14-.19,2.32-.39,3.48-.49a1.969,1.969,0,0,1,2.15,1.12l.43,1.18A1.814,1.814,0,0,1,57.28,45.6Z"/><path d="M49.5,31.5h-6a2.006,2.006,0,0,0-2,2v2a2.006,2.006,0,0,0,2,2h6a2.006,2.006,0,0,0,2-2v-2A2.006,2.006,0,0,0,49.5,31.5Zm0,4h-6v-2h6Z"/></g></svg>