<?xml version="1.0" ?><svg xmlns="http://www.w3.org/2000/svg" xmlns:xlink="http://www.w3.org/1999/xlink" version="1.1" id="Layer_1" viewBox="0 0 32 32" style="enable-background:new 0 0 32 32;" xml:space="preserve"><style type="text/css">
	.st0{fill:none;stroke:#000000;stroke-linecap:round;stroke-linejoin:round;stroke-miterlimit:10;}
</style><g><path class="st0" d="M16,31L16,31L16,31C8.3,29.5,2.7,22.7,2.7,14.9V7.4c0-0.9,0.6-1.7,1.4-2l11.1-4.2c0.5-0.2,1.1-0.2,1.6,0   l11,4.2c0.8,0.3,1.4,1.1,1.4,2v7.5C29.3,22.7,23.7,29.5,16,31z"/><g><path class="st0" d="M20.5,25.5h-9c-0.9,0-1.7-0.7-1.7-1.7v-9c0-0.9,0.7-1.7,1.7-1.7h9c0.9,0,1.7,0.7,1.7,1.7v9    C22.1,24.8,21.4,25.5,20.5,25.5z"/><path class="st0" d="M19.3,9.8v3.5h-6.6V9.8c0-1.8,1.5-3.3,3.3-3.3l0,0C17.8,6.5,19.3,7.9,19.3,9.8z"/><path class="st0" d="M18.3,17.6c0,0.9-0.5,1.6-1.2,2v2.7c0,0.6-0.5,1.1-1.1,1.1l0,0c-0.6,0-1.1-0.5-1.1-1.1v-2.7    c-0.8-0.4-1.3-1.4-1.2-2.4c0.2-1,1-1.7,2-1.8C17.1,15.2,18.3,16.3,18.3,17.6z"/></g></g></svg>